<svg class="svg-icon" style="width: 1em;height: 1em;vertical-align: middle;fill: currentColor;overflow: hidden; color:#00bf63;" viewBox="0 0 1024 1024" version="1.1" xmlns="http://www.w3.org/2000/svg">
<path d="M375.79 542.48H141.71C97.69 542.48 62 578.17 62 622.2v234.07c0 44.02 35.69 79.71 79.71 79.71h234.2c43.95 0 79.58-35.63 79.58-79.58V622.2c0.01-44.03-35.68-79.72-79.7-79.72zM588.73 481.52H822.8c44.02 0 79.71-35.69 79.71-79.71V167.73c0-44.02-35.69-79.71-79.71-79.71H588.73c-44.02 0-79.71 35.69-79.71 79.71V401.8c0 44.03 35.69 79.72 79.71 79.72zM944.88 856.24l-59.11-38.06c10.64-24.2 16.75-50.82 16.75-78.95 0-108.66-88.09-196.75-196.75-196.75s-196.75 88.09-196.75 196.75 88.09 196.75 196.75 196.75c53.61 0 102.1-21.58 137.58-56.36l61.13 39.36a37.132 37.132 0 0 0 20.16 5.94c12.28 0 24.28-6.04 31.43-17.12 11.13-17.32 6.14-40.41-11.19-51.56zM375.79 88.02H141.71C97.69 88.02 62 123.71 62 167.73V401.8c0 44.02 35.69 79.71 79.71 79.71h234.07c44.02 0 79.71-35.69 79.71-79.71V167.73c0.01-44.02-35.68-79.71-79.7-79.71z"  />
</svg>