<svg fill="#ffffff" height="200px" width="200px" version="1.1" xmlns="http://www.w3.org/2000/svg" xmlns:xlink="http://www.w3.org/1999/xlink" viewBox="0 0 512 512" xml:space="preserve">
<g id="SVGRepo_bgCarrier" stroke-width="0"></g>
<g id="SVGRepo_tracerCarrier" stroke-linecap="round" stroke-linejoin="round"></g>
<g id="SVGRepo_iconCarrier"> <g> 
<g> 
<path d="M340.54,36.316H17.86C7.997,36.316,0,44.313,0,54.177v403.646c0,9.864,7.997,17.86,17.86,17.86H340.54 c9.864,0,17.86-7.997,17.86-17.86V54.177C358.4,44.313,350.403,36.316,340.54,36.316z M133.358,145.86h92.405 c9.168,0,17.212,6.717,18.218,15.829c1.188,10.773-7.214,19.892-17.749,19.892h-92.405c-9.168,0-17.212-6.717-18.218-15.829 C114.421,154.979,122.825,145.86,133.358,145.86z M266.716,367.33H93.344c-9.168,0-17.212-6.717-18.218-15.829 c-1.188-10.773,7.216-19.892,17.749-19.892h173.373c9.168,0,17.212,6.717,18.218,15.829 C285.653,358.212,277.249,367.33,266.716,367.33z M266.716,274.456H93.344c-9.168,0-17.212-6.717-18.218-15.829 c-1.188-10.773,7.216-19.892,17.749-19.892h173.373c9.168,0,17.212,6.717,18.218,15.829 C285.653,265.337,277.249,274.456,266.716,274.456z"></path> 
</g> 
</g> 
<g> 
<g> 
<path d="M506.047,133.953h-98.828c-3.288,0-5.953,2.666-5.953,5.953V332.8c0,3.288,2.666,5.953,5.953,5.953h98.828 c3.287,0,5.953-2.666,5.953-5.953V139.907C512,136.619,509.334,133.953,506.047,133.953z"></path> 
</g> 
</g> 
<g> <g> 
<path d="M494.14,36.316h-75.014c-9.864,0-17.86,7.997-17.86,17.86v38.102c0,3.288,2.666,5.953,5.953,5.953h98.828 c3.287,0,5.953-2.666,5.953-5.953V54.177C512,44.313,504.003,36.316,494.14,36.316z"></path> 
</g> 
</g> 
<g> 
<g> <path d="M497.283,374.474h-81.015c-4.229,0-7.11,4.286-5.512,8.203l29.483,72.261c6.027,14.774,27.04,14.794,33.074,0 l29.483-72.261C504.394,378.761,501.512,374.474,497.283,374.474z"></path> 
</g> </g> </g></svg>